<?xml version="1.0" encoding="utf-8"?>
<!-- Generator: Adobe Illustrator 16.0.0, SVG Export Plug-In . SVG Version: 6.00 Build 0)  -->
<!DOCTYPE svg PUBLIC "-//W3C//DTD SVG 1.1//EN" "http://www.w3.org/Graphics/SVG/1.1/DTD/svg11.dtd">
<svg xmlns:xlink="http://www.w3.org/1999/xlink" xmlns="http://www.w3.org/2000/svg" version="1.1" id="Layer_1" x="0px" y="0px" width="512" height="512" viewBox="0 0 512 512" enable-background="new 0 0 512 512" xml:space="preserve">
<g id="_x32_2._horn_x2C__viking_x2C__culture_x2C__country_x2C__civilization">
	<g>
		<g>
			<circle fill="#FFCE54" cx="148.02" cy="364.84" r="15.997"/>
		</g>
	</g>
	<g>
		<g>
			<circle fill="#FFCE54" cx="339.984" cy="180.723" r="15.997"/>
		</g>
	</g>
	<g opacity="0.2">
		<g>
			<path d="M132.218,366.77c0.964,7.912,7.631,14.067,15.802,14.067c8.834,0,15.997-7.163,15.997-15.997     c0-3.999-1.515-7.6-3.941-10.404c-1.355,0.672-2.659,1.406-4.026,2.07C148.36,360.216,140.361,363.582,132.218,366.77z"/>
		</g>
	</g>
	<g opacity="0.2">
		<g>
			<path d="M342.336,164.96c-4.039,7.998-8.459,16.208-13.279,24.534c-0.336,0.578-0.703,1.164-1.047,1.742     c2.938,3.335,7.187,5.483,11.975,5.483c8.834,0,15.997-7.163,15.997-15.997C355.981,172.692,350.045,166.108,342.336,164.96z"/>
		</g>
	</g>
	<g>
		<g>
			<polygon fill="#965353" points="76.033,388.68 76.033,420.674 4.047,412.675 4.047,396.678    "/>
		</g>
	</g>
	<g>
		<g>
			<path fill="#965353" d="M156.339,107.689c-42.711,9.998-75.744,43.515-84.145,85.343     c-9.518,46.875,25.358,116.138,73.986,155.732c-5.839,0.719-10.717,4.476-12.877,9.678     c-51.99-43.115-87.343-116.372-76.786-168.526c9.678-47.991,47.433-86.382,96.143-97.818     c55.431-12.958,132.296,21.59,179.248,74.861c-4.718,2.718-7.921,7.92-7.921,13.763c0,0.312,0,0.633,0.078,0.953     C280.715,131.208,206.572,95.934,156.339,107.689z"/>
		</g>
	</g>
	<g opacity="0.2">
		<g>
			<g>
				<path fill="#FFFFFF" d="M64.516,189.916c9.678-47.991,47.433-86.382,96.143-97.818c6.405-1.5,13.123-2.296,20.02-2.57      c-9.732-0.234-19.168,0.5-28.018,2.57c-48.71,11.436-86.465,49.827-96.143,97.818c-10.557,52.154,24.796,125.411,76.786,168.526      c0.695-1.679,1.758-3.124,2.957-4.452C87.078,310.429,54.307,240.352,64.516,189.916z"/>
			</g>
		</g>
	</g>
	<g>
		<g>
			<path fill="#656D78" d="M437.326,140.73c-36.712-12.724-65.504-26.315-65.504-30.799l0.078-0.32     c1.438-4.155,33.111,2.961,70.628,15.997c37.587,13.037,66.862,26.956,65.425,31.12     C506.517,160.96,474.843,153.767,437.326,140.73z"/>
		</g>
	</g>
	<g opacity="0.2">
		<g>
			<path d="M437.326,140.73c-36.712-12.724-65.504-26.315-65.504-30.799l0.078-0.32c1.438-4.155,33.111,2.961,70.628,15.997     c37.587,13.037,66.862,26.956,65.425,31.12C506.517,160.96,474.843,153.767,437.326,140.73z"/>
		</g>
	</g>
	<g>
		<g>
			<path fill="#656D78" d="M494.839,194.556c-1.445,4.164-33.119-3.038-70.628-15.997c-37.594-13.036-66.87-27.034-65.433-31.197     l13.044-37.431c0,4.484,28.792,18.075,65.504,30.799c37.517,13.037,69.19,20.23,70.627,15.997L494.839,194.556z"/>
		</g>
	</g>
	<g>
		<g>
			<path fill="#ED5565" d="M424.211,178.559c37.509,12.959,69.183,20.161,70.628,15.997     C459.643,280.38,341.344,441.623,84.032,420.674h-7.999V388.68h7.999c27.916-5.766,53.751-14.881,77.427-26.316     c80.786-39.116,137.572-106.061,173.003-167.011c9.679-16.716,17.763-32.947,24.316-47.991     C357.341,151.524,386.617,165.522,424.211,178.559z"/>
		</g>
	</g>
	<g opacity="0.3">
		<g>
			<g>
				<path fill="#FFFFFF" d="M453.323,148.729c20.449,7.108,39.11,12.451,52.139,15.185l2.491-7.186      c-1.437,4.233-33.11-2.96-70.627-15.997c-16.13-5.593-30.729-11.35-42.031-16.427      C406.152,130.63,427.812,139.886,453.323,148.729z"/>
			</g>
		</g>
		<g>
			<g>
				<path fill="#FFFFFF" d="M4.047,404.676l87.983-7.998h7.999c27.917-5.765,53.752-14.88,77.427-26.315      c80.786-39.117,137.572-106.065,173.003-167.011c9.678-16.715,17.763-32.947,24.316-47.991l12.185-34.979      c-9.475-4.694-15.138-8.467-15.138-10.451l-13.044,37.431c-6.554,15.044-14.638,31.275-24.316,47.991      c-35.431,60.95-92.217,127.895-173.003,167.011c-23.675,11.436-49.511,20.551-77.427,26.316h-7.999l-71.986,7.998V404.676z"/>
			</g>
		</g>
	</g>
	<g opacity="0.2">
		<g>
			<g>
				<path d="M489.465,155.915l-10.623,30.643c-35.196,85.824-153.495,247.066-410.807,226.117h-7.999l-55.989-6.218v6.218      l71.986,7.999h7.999c257.312,20.949,375.61-140.294,410.807-226.118l13.114-37.829      C507.297,158.656,500.338,158.195,489.465,155.915z"/>
			</g>
		</g>
	</g>
	<g>
		<g>
			<g>
				<path fill="#3A3847" d="M129.824,426.57c-14.829,0-30.178-0.617-46.116-1.913c-2.203-0.18-3.843-2.109-3.664-4.312      c0.183-2.195,2.14-3.797,4.312-3.656c290.138,23.598,389.768-182.164,406.781-223.649c0.844-2.046,3.187-3.007,5.218-2.187      c2.046,0.844,3.022,3.179,2.179,5.218C482.091,236.181,390.14,426.57,129.824,426.57z"/>
			</g>
		</g>
		<g>
			<g>
				<path fill="#3A3847" d="M84.028,392.679c-1.859,0-3.523-1.297-3.914-3.187c-0.445-2.164,0.945-4.281,3.109-4.727      c26.272-5.429,52.01-14.177,76.497-26.003C246.135,316.92,300.562,245.71,331.01,193.345      c9.037-15.622,17.153-31.627,24.105-47.585c0.882-2.015,3.241-2.929,5.264-2.062c2.023,0.883,2.953,3.233,2.07,5.265      c-7.077,16.224-15.325,32.51-24.526,48.397c-31.003,53.333-86.484,125.879-174.722,168.604      c-25.082,12.115-51.444,21.074-78.361,26.628C84.567,392.655,84.297,392.679,84.028,392.679z"/>
			</g>
		</g>
		<g>
			<g>
				<path fill="#3A3847" d="M4.043,400.677c-2.012,0-3.746-1.515-3.972-3.554c-0.242-2.203,1.339-4.179,3.535-4.421l71.986-7.999      c2.254-0.195,4.175,1.344,4.417,3.531c0.242,2.202-1.339,4.179-3.535,4.421l-71.986,7.998      C4.34,400.669,4.188,400.677,4.043,400.677z"/>
			</g>
		</g>
		<g>
			<g>
				<path fill="#3A3847" d="M76.037,424.673c-0.148,0-0.297-0.008-0.445-0.023L3.605,416.65c-2.195-0.242-3.777-2.218-3.535-4.421      c0.242-2.187,2.285-3.71,4.417-3.53l71.986,7.998c2.195,0.242,3.776,2.219,3.535,4.422      C79.783,423.157,78.049,424.673,76.037,424.673z"/>
			</g>
		</g>
		<g>
			<g>
				<path fill="#3A3847" d="M76.033,424.673c-2.21,0-3.999-1.789-3.999-3.999V388.68c0-2.211,1.789-4,3.999-4c2.211,0,4,1.789,4,4      v31.994C80.033,422.884,78.244,424.673,76.033,424.673z"/>
			</g>
		</g>
		<g>
			<g>
				<path fill="#3A3847" d="M4.047,416.674c-2.211,0-4-1.789-4-3.999v-15.997c0-2.211,1.789-3.999,4-3.999      c2.21,0,3.999,1.788,3.999,3.999v15.997C8.046,414.885,6.257,416.674,4.047,416.674z"/>
			</g>
		</g>
		<g>
			<g>
				<path fill="#3A3847" d="M474.765,183.121c-1.492,0-2.922-0.836-3.608-2.265l-4.883-10.162c-0.953-1.992-0.117-4.382,1.875-5.343      c1.992-0.953,4.382-0.109,5.335,1.875l4.882,10.162c0.953,1.992,0.117,4.382-1.875,5.343      C475.928,182.996,475.343,183.121,474.765,183.121z"/>
			</g>
		</g>
		<g>
			<g>
				<path fill="#3A3847" d="M459.65,177.918c-1.484,0-2.914-0.828-3.609-2.257c-0.961-1.984-0.125-4.374,1.859-5.343l10.232-4.96      c1.992-0.961,4.39-0.133,5.351,1.859c0.961,1.984,0.125,4.374-1.859,5.343l-10.232,4.96      C460.83,177.793,460.236,177.918,459.65,177.918z"/>
			</g>
		</g>
		<g>
			<g>
				<path fill="#3A3847" d="M459.65,177.918c-1.5,0-2.93-0.844-3.617-2.281l-4.882-10.24c-0.952-1.992-0.102-4.375,1.891-5.327      c2.015-0.953,4.39-0.102,5.327,1.89l4.882,10.24c0.953,1.992,0.109,4.375-1.883,5.327      C460.807,177.793,460.221,177.918,459.65,177.918z"/>
			</g>
		</g>
		<g>
			<g>
				<path fill="#3A3847" d="M444.527,172.638c-1.483,0-2.913-0.828-3.601-2.257c-0.961-1.984-0.133-4.374,1.852-5.343l10.24-4.96      c1.999-0.953,4.382-0.133,5.343,1.859c0.961,1.984,0.133,4.374-1.852,5.343l-10.24,4.96      C445.707,172.513,445.113,172.638,444.527,172.638z"/>
			</g>
		</g>
		<g>
			<g>
				<path fill="#3A3847" d="M444.527,172.638c-1.491,0-2.921-0.836-3.608-2.265l-4.874-10.154c-0.961-1.992-0.117-4.382,1.875-5.343      c1.983-0.953,4.382-0.117,5.335,1.875l4.874,10.154c0.961,1.992,0.117,4.382-1.875,5.343      C445.699,172.513,445.105,172.638,444.527,172.638z"/>
			</g>
		</g>
		<g>
			<g>
				<path fill="#3A3847" d="M429.413,167.443c-1.491,0-2.913-0.828-3.608-2.257c-0.961-1.984-0.125-4.382,1.859-5.343l10.24-4.96      c1.991-0.969,4.39-0.125,5.343,1.859c0.96,1.984,0.133,4.382-1.859,5.342l-10.24,4.96      C430.593,167.319,429.991,167.443,429.413,167.443z"/>
			</g>
		</g>
		<g>
			<g>
				<path fill="#3A3847" d="M429.413,167.443c-1.499,0-2.929-0.843-3.616-2.28l-4.874-10.24c-0.953-1.992-0.109-4.382,1.89-5.327      c1.992-0.953,4.383-0.102,5.328,1.89l4.874,10.24c0.952,1.992,0.109,4.382-1.891,5.327      C430.569,167.319,429.983,167.443,429.413,167.443z"/>
			</g>
		</g>
		<g>
			<g>
				<path fill="#3A3847" d="M414.291,162.163c-1.484,0-2.913-0.828-3.601-2.257c-0.961-1.984-0.133-4.382,1.858-5.343l10.24-4.96      c1.992-0.969,4.383-0.125,5.344,1.859s0.125,4.382-1.859,5.342l-10.24,4.96C415.471,162.039,414.877,162.163,414.291,162.163z"/>
			</g>
		</g>
		<g>
			<g>
				<path fill="#3A3847" d="M414.291,162.163c-1.492,0-2.921-0.835-3.608-2.265l-4.874-10.162c-0.961-1.992-0.117-4.382,1.875-5.343      c1.999-0.961,4.381-0.109,5.334,1.874l4.875,10.163c0.96,1.992,0.117,4.382-1.875,5.343      C415.463,162.039,414.869,162.163,414.291,162.163z"/>
			</g>
		</g>
		<g>
			<g>
				<path fill="#3A3847" d="M399.177,156.961c-1.484,0-2.913-0.828-3.601-2.257c-0.961-1.984-0.133-4.375,1.852-5.343l10.24-4.96      c1.991-0.953,4.381-0.133,5.342,1.858c0.961,1.984,0.133,4.375-1.851,5.343l-10.24,4.96      C400.356,156.836,399.763,156.961,399.177,156.961z"/>
			</g>
		</g>
		<g>
			<g>
				<path fill="#3A3847" d="M399.177,156.961c-1.492,0-2.921-0.835-3.608-2.265l-4.882-10.154c-0.953-1.992-0.117-4.382,1.874-5.335      c1.984-0.992,4.383-0.117,5.335,1.866l4.882,10.155c0.961,1.992,0.117,4.382-1.866,5.335      C400.349,156.836,399.755,156.961,399.177,156.961z"/>
			</g>
		</g>
		<g>
			<g>
				<path fill="#3A3847" d="M384.062,151.681c-1.5,0-2.93-0.843-3.617-2.28c-0.952-1.992-0.102-4.382,1.891-5.327l10.24-4.874      c2-0.961,4.375-0.094,5.327,1.89c0.953,1.992,0.102,4.382-1.89,5.327l-10.24,4.875      C385.219,151.556,384.633,151.681,384.062,151.681z"/>
			</g>
		</g>
		<g>
			<g>
				<path fill="#3A3847" d="M503.813,161.867c-17.302,0-62.137-15.396-67.8-17.356c-20.504-7.108-68.19-24.699-68.19-34.58      c0-0.391,0.055-0.757,0.156-1.117c0.031-0.172,0.078-0.344,0.141-0.516c1.461-4.21,6.116-5.64,26.448-1.039      c13.544,3.062,31.041,8.232,49.271,14.567c47.648,16.528,70.487,28.706,67.895,36.204c-0.305,0.898-1.039,2.172-2.75,3.007      C507.812,161.609,506.04,161.867,503.813,161.867z M381.18,112.821c9.327,5.39,29.409,14.411,57.459,24.128      c28.072,9.756,49.436,15.083,60.059,16.599c-9.295-5.382-29.385-14.419-57.481-24.16      C413.197,119.648,391.834,114.329,381.18,112.821z"/>
			</g>
		</g>
		<g>
			<g>
				<path fill="#3A3847" d="M489.559,199.359c-11.553,0-33.846-5.686-66.652-17.02c-47.67-16.528-70.51-28.737-67.908-36.282      c0.718-2.085,2.999-3.187,5.084-2.476c1.492,0.516,2.484,1.82,2.664,3.288c3.624,3.914,26.558,15.349,62.77,27.909      c36.243,12.521,61.246,17.747,66.512,16.927c1.054-1.023,2.632-1.445,4.116-0.93c2.085,0.727,3.194,3,2.476,5.085      C497.807,198.196,494.784,199.359,489.559,199.359z"/>
			</g>
		</g>
		<g>
			<g>
				<path fill="#3A3847" d="M358.778,151.361c-0.438,0-0.875-0.07-1.312-0.219c-2.086-0.734-3.187-3.007-2.46-5.093l13.036-37.431      c0.703-2.031,2.921-3.289,4.952-2.687c2.047,0.609,3.297,2.554,2.789,4.624l-0.078,0.32l-13.146,37.798      C361.98,150.33,360.434,151.361,358.778,151.361z"/>
			</g>
		</g>
		<g>
			<g>
				<path fill="#3A3847" d="M494.839,198.555c-0.438,0-0.875-0.07-1.312-0.219c-2.085-0.726-3.194-3.007-2.468-5.093l13.114-37.829      c0.719-2.078,3-3.188,5.085-2.469c2.094,0.727,3.195,3.007,2.477,5.093l-13.115,37.829      C498.041,197.517,496.495,198.555,494.839,198.555z"/>
			</g>
		</g>
		<g>
			<g>
				<path fill="#3A3847" d="M328.463,195.837c-1.062,0-2.124-0.422-2.913-1.258c-3.265-3.476-5.194-7.865-5.46-12.404      c-0.102-0.593-0.102-1.093-0.102-1.453c0-7.101,3.804-13.701,9.92-17.231c3.789-2.265,8.639-3.093,12.639-2.578      c2.194,0.266,3.757,2.257,3.483,4.453c-0.266,2.194-2.28,3.772-4.452,3.483c-2.383-0.258-5.296,0.156-7.615,1.539      c-3.711,2.14-5.977,6.085-5.977,10.334c0.188,3.483,1.398,6.249,3.391,8.373c1.516,1.617,1.438,4.148-0.172,5.655      C330.432,195.478,329.447,195.837,328.463,195.837z"/>
			</g>
		</g>
		<g>
			<g>
				<path fill="#3A3847" d="M132.179,370.44c-1.964,0-3.679-1.445-3.957-3.452c-0.105-0.734-0.199-1.578-0.199-2.305      c0-2.633,0.535-5.249,1.59-7.779c2.734-6.585,8.893-11.225,16.079-12.107c0.668-0.094,1.5-0.109,2.328-0.109      c6.101,0,11.755,2.702,15.524,7.412c1.378,1.727,1.098,4.242-0.628,5.625c-1.727,1.366-4.25,1.093-5.62-0.625      c-2.34-2.922-6.05-4.391-9.741-4.414c-0.289,0-0.566,0.008-0.824,0.039c-4.394,0.539-8.101,3.32-9.733,7.249      c-0.656,1.578-0.976,3.116-0.976,4.71c0,0.383,0.07,0.82,0.121,1.211c0.305,2.188-1.223,4.202-3.41,4.507      C132.546,370.425,132.363,370.44,132.179,370.44z"/>
			</g>
		</g>
		<g>
			<g>
				<path fill="#3A3847" d="M133.3,362.441c-0.898,0-1.804-0.305-2.55-0.921c-55.186-45.765-88.785-119.88-78.154-172.401      c9.987-49.506,48.905-89.116,99.15-100.911c54.88-12.841,133.615,19.895,183.161,76.104c1.461,1.664,1.297,4.187-0.359,5.647      c-1.655,1.46-4.179,1.297-5.64-0.352C281.159,115.43,205.779,83.756,153.57,95.996c-47.206,11.076-83.766,48.257-93.131,94.709      c-9.924,49.03,23.203,121.356,75.42,164.66c1.699,1.406,1.933,3.929,0.523,5.632C135.593,361.949,134.452,362.441,133.3,362.441      z"/>
			</g>
		</g>
		<g>
			<g>
				<path fill="#3A3847" d="M143.505,351.74c-51.721-42.108-84.832-112.224-75.232-159.504      c8.713-43.367,42.922-78.087,87.156-88.445c49.94-11.654,125.372,21.378,171.676,75.275c1.437,1.68,1.241,4.202-0.43,5.64      c-1.672,1.438-4.194,1.258-5.64-0.422c-43.789-50.975-117.264-83.625-163.786-72.697c-41.188,9.639-73.038,41.922-81.134,82.234      c-8.912,43.883,23.652,111.999,72.592,151.843l-2.445,3.179L143.505,351.74z"/>
			</g>
		</g>
	</g>
</g>
</svg>
